<svg xmlns="http://www.w3.org/2000/svg" xmlns:xlink="http://www.w3.org/1999/xlink" zoomAndPan="magnify" preserveAspectRatio="xMidYMid meet" version="1.0" viewBox="8.18 162.7 358.62 48.17"><defs><g/></defs><g fill="#000000" fill-opacity="1"><g transform="translate(8.178712, 201.697951)"><g><path d="M 0 -30.96875 C 0 -31.914062 0.332031 -32.722656 1 -33.390625 C 1.675781 -34.066406 2.488281 -34.40625 3.4375 -34.40625 C 4.382812 -34.40625 5.191406 -34.066406 5.859375 -33.390625 C 6.535156 -32.722656 6.875 -31.914062 6.875 -30.96875 L 6.875 -21.75 C 6.875 -21.4375 6.984375 -21.171875 7.203125 -20.953125 C 7.421875 -20.742188 7.695312 -20.640625 8.03125 -20.640625 L 19.5 -20.640625 C 19.832031 -20.640625 20.101562 -20.742188 20.3125 -20.953125 C 20.53125 -21.171875 20.640625 -21.453125 20.640625 -21.796875 L 20.640625 -30.96875 C 20.640625 -31.914062 20.972656 -32.722656 21.640625 -33.390625 C 22.316406 -34.066406 23.128906 -34.40625 24.078125 -34.40625 C 25.023438 -34.40625 25.835938 -34.066406 26.515625 -33.390625 C 27.191406 -32.722656 27.53125 -31.914062 27.53125 -30.96875 L 27.53125 -3.390625 C 27.53125 -2.441406 27.179688 -1.640625 26.484375 -0.984375 C 25.796875 -0.328125 24.992188 0 24.078125 0 C 23.128906 0 22.316406 -0.332031 21.640625 -1 C 20.972656 -1.675781 20.640625 -2.488281 20.640625 -3.4375 L 20.640625 -12.5625 C 20.640625 -12.875 20.53125 -13.148438 20.3125 -13.390625 C 20.101562 -13.640625 19.832031 -13.765625 19.5 -13.765625 L 8.03125 -13.765625 C 7.695312 -13.765625 7.421875 -13.648438 7.203125 -13.421875 C 6.984375 -13.191406 6.875 -12.9375 6.875 -12.65625 L 6.875 -3.390625 C 6.875 -2.441406 6.53125 -1.640625 5.84375 -0.984375 C 5.15625 -0.328125 4.351562 0 3.4375 0 C 2.488281 0 1.675781 -0.332031 1 -1 C 0.332031 -1.675781 0 -2.488281 0 -3.4375 Z M 0 -30.96875 "/></g></g></g><g fill="#000000" fill-opacity="1"><g transform="translate(39.737528, 201.697951)"><g><path d="M 0 -21.796875 C 0 -22.742188 0.332031 -23.550781 1 -24.21875 C 1.675781 -24.894531 2.488281 -25.234375 3.4375 -25.234375 C 4.382812 -25.234375 5.191406 -24.894531 5.859375 -24.21875 C 6.535156 -23.550781 6.875 -22.742188 6.875 -21.796875 L 6.875 -8.03125 C 6.875 -7.695312 6.992188 -7.421875 7.234375 -7.203125 C 7.484375 -6.984375 7.75 -6.875 8.03125 -6.875 L 12.609375 -6.875 C 12.953125 -6.875 13.226562 -6.988281 13.4375 -7.21875 C 13.65625 -7.445312 13.765625 -7.71875 13.765625 -8.03125 L 13.765625 -21.796875 C 13.765625 -22.742188 14.097656 -23.550781 14.765625 -24.21875 C 15.441406 -24.894531 16.253906 -25.234375 17.203125 -25.234375 C 18.148438 -25.234375 18.957031 -24.894531 19.625 -24.21875 C 20.300781 -23.550781 20.640625 -22.742188 20.640625 -21.796875 L 20.640625 -3.4375 C 20.640625 -2.488281 20.300781 -1.675781 19.625 -1 C 18.957031 -0.332031 18.148438 0 17.203125 0 L 8.03125 0 C 7.082031 0 6.269531 -0.332031 5.59375 -1 C 4.925781 -1.675781 4.59375 -2.488281 4.59375 -3.4375 C 4.59375 -3.800781 4.476562 -4.082031 4.25 -4.28125 C 4.019531 -4.488281 3.75 -4.59375 3.4375 -4.59375 C 2.851562 -4.59375 2.347656 -4.707031 1.921875 -4.9375 C 1.492188 -5.164062 1.132812 -5.445312 0.84375 -5.78125 C 0.550781 -6.113281 0.335938 -6.476562 0.203125 -6.875 C 0.0664062 -7.28125 0 -7.664062 0 -8.03125 Z M 0 -21.796875 "/></g></g></g><g fill="#000000" fill-opacity="1"><g transform="translate(64.415791, 201.697951)"><g><path d="M 14.90625 2.296875 C 15.300781 2.296875 15.59375 2.164062 15.78125 1.90625 C 15.96875 1.644531 16.0625 1.390625 16.0625 1.140625 C 16.0625 0.867188 15.953125 0.609375 15.734375 0.359375 C 15.515625 0.117188 15.238281 0 14.90625 0 L 8.03125 0 C 7.082031 0 6.269531 -0.332031 5.59375 -1 C 4.925781 -1.675781 4.59375 -2.488281 4.59375 -3.4375 C 4.59375 -3.863281 4.46875 -4.160156 4.21875 -4.328125 C 3.976562 -4.503906 3.71875 -4.59375 3.4375 -4.59375 C 2.488281 -4.59375 1.675781 -4.925781 1 -5.59375 C 0.332031 -6.269531 0 -7.082031 0 -8.03125 L 0 -17.203125 C 0 -18.148438 0.332031 -18.957031 1 -19.625 C 1.675781 -20.300781 2.488281 -20.640625 3.4375 -20.640625 C 3.832031 -20.640625 4.125 -20.757812 4.3125 -21 C 4.5 -21.25 4.59375 -21.515625 4.59375 -21.796875 C 4.59375 -22.742188 4.925781 -23.550781 5.59375 -24.21875 C 6.269531 -24.894531 7.082031 -25.234375 8.03125 -25.234375 L 19.5 -25.234375 C 20.445312 -25.234375 21.253906 -24.894531 21.921875 -24.21875 C 22.597656 -23.550781 22.9375 -22.742188 22.9375 -21.796875 L 22.9375 1.140625 C 22.9375 2.085938 22.597656 2.898438 21.921875 3.578125 C 21.253906 4.253906 20.445312 4.59375 19.5 4.59375 C 19.132812 4.59375 18.847656 4.710938 18.640625 4.953125 C 18.441406 5.203125 18.34375 5.460938 18.34375 5.734375 C 18.34375 6.679688 18.003906 7.488281 17.328125 8.15625 C 16.660156 8.832031 15.851562 9.171875 14.90625 9.171875 L 3.4375 9.171875 C 2.488281 9.171875 1.675781 8.832031 1 8.15625 C 0.332031 7.488281 0 6.679688 0 5.734375 C 0 4.785156 0.332031 3.972656 1 3.296875 C 1.675781 2.628906 2.488281 2.296875 3.4375 2.296875 Z M 14.90625 -6.875 C 15.21875 -6.875 15.488281 -6.984375 15.71875 -7.203125 C 15.945312 -7.421875 16.0625 -7.695312 16.0625 -8.03125 L 16.0625 -17.203125 C 16.0625 -17.472656 15.953125 -17.726562 15.734375 -17.96875 C 15.515625 -18.21875 15.238281 -18.34375 14.90625 -18.34375 L 8.03125 -18.34375 C 7.695312 -18.34375 7.421875 -18.226562 7.203125 -18 C 6.984375 -17.769531 6.875 -17.503906 6.875 -17.203125 L 6.875 -8.03125 C 6.875 -7.632812 6.992188 -7.34375 7.234375 -7.15625 C 7.484375 -6.96875 7.75 -6.875 8.03125 -6.875 Z M 14.90625 -6.875 "/></g></g></g><g fill="#000000" fill-opacity="1"><g transform="translate(91.387577, 201.697951)"><g><path d="M 0 -17.203125 C 0 -18.148438 0.332031 -18.957031 1 -19.625 C 1.675781 -20.300781 2.488281 -20.640625 3.4375 -20.640625 C 3.769531 -20.640625 4.046875 -20.757812 4.265625 -21 C 4.484375 -21.25 4.59375 -21.515625 4.59375 -21.796875 C 4.59375 -22.742188 4.925781 -23.550781 5.59375 -24.21875 C 6.269531 -24.894531 7.082031 -25.234375 8.03125 -25.234375 L 14.90625 -25.234375 C 15.851562 -25.234375 16.660156 -24.894531 17.328125 -24.21875 C 18.003906 -23.550781 18.34375 -22.742188 18.34375 -21.796875 C 18.34375 -21.453125 18.457031 -21.171875 18.6875 -20.953125 C 18.914062 -20.742188 19.1875 -20.640625 19.5 -20.640625 C 20.445312 -20.640625 21.253906 -20.300781 21.921875 -19.625 C 22.597656 -18.957031 22.9375 -18.148438 22.9375 -17.203125 L 22.9375 -8.03125 C 22.9375 -7.082031 22.597656 -6.269531 21.921875 -5.59375 C 21.253906 -4.925781 20.445312 -4.59375 19.5 -4.59375 C 19.132812 -4.59375 18.847656 -4.460938 18.640625 -4.203125 C 18.441406 -3.941406 18.34375 -3.6875 18.34375 -3.4375 C 18.34375 -2.488281 18.003906 -1.675781 17.328125 -1 C 16.660156 -0.332031 15.851562 0 14.90625 0 L 8.03125 0 C 7.082031 0 6.269531 -0.332031 5.59375 -1 C 4.925781 -1.675781 4.59375 -2.488281 4.59375 -3.4375 C 4.59375 -3.769531 4.484375 -4.046875 4.265625 -4.265625 C 4.046875 -4.484375 3.769531 -4.59375 3.4375 -4.59375 C 2.488281 -4.59375 1.675781 -4.925781 1 -5.59375 C 0.332031 -6.269531 0 -7.082031 0 -8.03125 Z M 14.90625 -6.875 C 15.1875 -6.875 15.445312 -6.96875 15.6875 -7.15625 C 15.9375 -7.34375 16.0625 -7.632812 16.0625 -8.03125 L 16.0625 -17.203125 C 16.0625 -17.503906 15.953125 -17.769531 15.734375 -18 C 15.515625 -18.226562 15.238281 -18.34375 14.90625 -18.34375 L 8.03125 -18.34375 C 7.695312 -18.34375 7.421875 -18.21875 7.203125 -17.96875 C 6.984375 -17.726562 6.875 -17.472656 6.875 -17.203125 L 6.875 -8.03125 C 6.875 -7.695312 6.988281 -7.421875 7.21875 -7.203125 C 7.445312 -6.984375 7.71875 -6.875 8.03125 -6.875 Z M 14.90625 -6.875 "/></g></g></g><g fill="#000000" fill-opacity="1"><g transform="translate(118.359364, 201.697951)"><g/></g></g><g fill="#000000" fill-opacity="1"><g transform="translate(130.010443, 201.697951)"><g><path d="M 17.203125 -6.875 C 17.472656 -6.875 17.726562 -6.96875 17.96875 -7.15625 C 18.21875 -7.34375 18.34375 -7.632812 18.34375 -8.03125 L 18.34375 -12.609375 C 18.34375 -12.921875 18.234375 -13.191406 18.015625 -13.421875 C 17.804688 -13.648438 17.535156 -13.765625 17.203125 -13.765625 L 8.03125 -13.765625 C 7.695312 -13.765625 7.421875 -13.648438 7.203125 -13.421875 C 6.984375 -13.191406 6.875 -12.921875 6.875 -12.609375 L 6.875 -8.03125 C 6.875 -7.632812 6.992188 -7.34375 7.234375 -7.15625 C 7.484375 -6.96875 7.75 -6.875 8.03125 -6.875 Z M 0 -30.96875 C 0 -31.914062 0.332031 -32.722656 1 -33.390625 C 1.675781 -34.066406 2.488281 -34.40625 3.4375 -34.40625 L 17.203125 -34.40625 C 18.148438 -34.40625 18.957031 -34.066406 19.625 -33.390625 C 20.300781 -32.722656 20.640625 -31.914062 20.640625 -30.96875 C 20.640625 -30.632812 20.753906 -30.359375 20.984375 -30.140625 C 21.210938 -29.921875 21.484375 -29.8125 21.796875 -29.8125 C 22.742188 -29.8125 23.550781 -29.472656 24.21875 -28.796875 C 24.894531 -28.128906 25.234375 -27.320312 25.234375 -26.375 L 25.234375 -21.796875 C 25.234375 -20.847656 24.894531 -20.035156 24.21875 -19.359375 C 23.550781 -18.679688 22.742188 -18.34375 21.796875 -18.34375 C 21.421875 -18.34375 21.132812 -18.210938 20.9375 -17.953125 C 20.738281 -17.691406 20.640625 -17.441406 20.640625 -17.203125 C 20.640625 -16.867188 20.753906 -16.59375 20.984375 -16.375 C 21.210938 -16.164062 21.484375 -16.0625 21.796875 -16.0625 C 22.742188 -16.0625 23.550781 -15.722656 24.21875 -15.046875 C 24.894531 -14.367188 25.234375 -13.554688 25.234375 -12.609375 L 25.234375 -8.03125 C 25.234375 -7.082031 24.894531 -6.269531 24.21875 -5.59375 C 23.550781 -4.925781 22.742188 -4.59375 21.796875 -4.59375 C 21.421875 -4.59375 21.132812 -4.460938 20.9375 -4.203125 C 20.738281 -3.941406 20.640625 -3.6875 20.640625 -3.4375 C 20.640625 -2.488281 20.300781 -1.675781 19.625 -1 C 18.957031 -0.332031 18.148438 0 17.203125 0 L 3.4375 0 C 2.488281 0 1.675781 -0.34375 1 -1.03125 C 0.332031 -1.71875 0 -2.535156 0 -3.484375 Z M 17.203125 -20.640625 C 17.472656 -20.640625 17.726562 -20.726562 17.96875 -20.90625 C 18.21875 -21.09375 18.34375 -21.390625 18.34375 -21.796875 L 18.34375 -26.375 C 18.34375 -26.6875 18.234375 -26.957031 18.015625 -27.1875 C 17.804688 -27.414062 17.535156 -27.53125 17.203125 -27.53125 L 8.03125 -27.53125 C 7.695312 -27.53125 7.421875 -27.414062 7.203125 -27.1875 C 6.984375 -26.957031 6.875 -26.6875 6.875 -26.375 L 6.875 -21.796875 C 6.875 -21.390625 6.992188 -21.09375 7.234375 -20.90625 C 7.484375 -20.726562 7.75 -20.640625 8.03125 -20.640625 Z M 17.203125 -20.640625 "/></g></g></g><g fill="#000000" fill-opacity="1"><g transform="translate(159.275752, 201.697951)"><g><path d="M 0 -30.96875 C 0 -31.914062 0.332031 -32.722656 1 -33.390625 C 1.675781 -34.066406 2.488281 -34.40625 3.4375 -34.40625 C 4.382812 -34.40625 5.191406 -34.066406 5.859375 -33.390625 C 6.535156 -32.722656 6.875 -31.914062 6.875 -30.96875 L 6.875 -8.03125 C 6.875 -7.664062 6.992188 -7.378906 7.234375 -7.171875 C 7.484375 -6.972656 7.75 -6.875 8.03125 -6.875 L 10.328125 -6.875 C 11.273438 -6.875 12.082031 -6.535156 12.75 -5.859375 C 13.425781 -5.191406 13.765625 -4.382812 13.765625 -3.4375 C 13.765625 -2.488281 13.425781 -1.675781 12.75 -1 C 12.082031 -0.332031 11.273438 0 10.328125 0 L 8.03125 0 C 7.082031 0 6.269531 -0.332031 5.59375 -1 C 4.925781 -1.675781 4.59375 -2.488281 4.59375 -3.4375 C 4.59375 -3.800781 4.46875 -4.082031 4.21875 -4.28125 C 3.976562 -4.488281 3.71875 -4.59375 3.4375 -4.59375 C 2.488281 -4.59375 1.675781 -4.925781 1 -5.59375 C 0.332031 -6.269531 0 -7.082031 0 -8.03125 Z M 0 -30.96875 "/></g></g></g><g fill="#000000" fill-opacity="1"><g transform="translate(177.073463, 201.697951)"><g><path d="M 0 -17.203125 C 0 -18.148438 0.332031 -18.957031 1 -19.625 C 1.675781 -20.300781 2.488281 -20.640625 3.4375 -20.640625 C 3.769531 -20.640625 4.046875 -20.757812 4.265625 -21 C 4.484375 -21.25 4.59375 -21.515625 4.59375 -21.796875 C 4.59375 -22.742188 4.925781 -23.550781 5.59375 -24.21875 C 6.269531 -24.894531 7.082031 -25.234375 8.03125 -25.234375 L 14.90625 -25.234375 C 15.851562 -25.234375 16.660156 -24.894531 17.328125 -24.21875 C 18.003906 -23.550781 18.34375 -22.742188 18.34375 -21.796875 C 18.34375 -21.453125 18.457031 -21.171875 18.6875 -20.953125 C 18.914062 -20.742188 19.1875 -20.640625 19.5 -20.640625 C 20.445312 -20.640625 21.253906 -20.300781 21.921875 -19.625 C 22.597656 -18.957031 22.9375 -18.148438 22.9375 -17.203125 L 22.9375 -8.03125 C 22.9375 -7.082031 22.597656 -6.269531 21.921875 -5.59375 C 21.253906 -4.925781 20.445312 -4.59375 19.5 -4.59375 C 19.132812 -4.59375 18.847656 -4.460938 18.640625 -4.203125 C 18.441406 -3.941406 18.34375 -3.6875 18.34375 -3.4375 C 18.34375 -2.488281 18.003906 -1.675781 17.328125 -1 C 16.660156 -0.332031 15.851562 0 14.90625 0 L 8.03125 0 C 7.082031 0 6.269531 -0.332031 5.59375 -1 C 4.925781 -1.675781 4.59375 -2.488281 4.59375 -3.4375 C 4.59375 -3.769531 4.484375 -4.046875 4.265625 -4.265625 C 4.046875 -4.484375 3.769531 -4.59375 3.4375 -4.59375 C 2.488281 -4.59375 1.675781 -4.925781 1 -5.59375 C 0.332031 -6.269531 0 -7.082031 0 -8.03125 Z M 14.90625 -6.875 C 15.1875 -6.875 15.445312 -6.96875 15.6875 -7.15625 C 15.9375 -7.34375 16.0625 -7.632812 16.0625 -8.03125 L 16.0625 -17.203125 C 16.0625 -17.503906 15.953125 -17.769531 15.734375 -18 C 15.515625 -18.226562 15.238281 -18.34375 14.90625 -18.34375 L 8.03125 -18.34375 C 7.695312 -18.34375 7.421875 -18.21875 7.203125 -17.96875 C 6.984375 -17.726562 6.875 -17.472656 6.875 -17.203125 L 6.875 -8.03125 C 6.875 -7.695312 6.988281 -7.421875 7.21875 -7.203125 C 7.445312 -6.984375 7.71875 -6.875 8.03125 -6.875 Z M 14.90625 -6.875 "/></g></g></g><g fill="#000000" fill-opacity="1"><g transform="translate(204.045249, 201.697951)"><g><path d="M 0 -8.03125 C 0 -8.976562 0.332031 -9.785156 1 -10.453125 C 1.675781 -11.128906 2.488281 -11.46875 3.4375 -11.46875 C 3.769531 -11.46875 4.046875 -11.582031 4.265625 -11.8125 C 4.484375 -12.039062 4.59375 -12.304688 4.59375 -12.609375 C 4.59375 -12.921875 4.484375 -13.191406 4.265625 -13.421875 C 4.046875 -13.648438 3.769531 -13.765625 3.4375 -13.765625 C 2.488281 -13.765625 1.675781 -14.097656 1 -14.765625 C 0.332031 -15.441406 0 -16.253906 0 -17.203125 L 0 -21.796875 C 0 -22.742188 0.332031 -23.550781 1 -24.21875 C 1.675781 -24.894531 2.488281 -25.234375 3.4375 -25.234375 C 4.382812 -25.234375 5.191406 -24.894531 5.859375 -24.21875 C 6.535156 -23.550781 6.875 -22.742188 6.875 -21.796875 L 6.875 -17.203125 C 6.875 -16.867188 6.984375 -16.59375 7.203125 -16.375 C 7.421875 -16.164062 7.695312 -16.0625 8.03125 -16.0625 L 12.609375 -16.0625 C 12.953125 -16.0625 13.226562 -16.164062 13.4375 -16.375 C 13.65625 -16.59375 13.765625 -16.867188 13.765625 -17.203125 L 13.765625 -21.796875 C 13.765625 -22.742188 14.097656 -23.550781 14.765625 -24.21875 C 15.441406 -24.894531 16.253906 -25.234375 17.203125 -25.234375 C 18.148438 -25.234375 18.957031 -24.894531 19.625 -24.21875 C 20.300781 -23.550781 20.640625 -22.742188 20.640625 -21.796875 L 20.640625 -17.203125 C 20.640625 -16.253906 20.300781 -15.441406 19.625 -14.765625 C 18.957031 -14.097656 18.148438 -13.765625 17.203125 -13.765625 C 16.867188 -13.765625 16.59375 -13.648438 16.375 -13.421875 C 16.164062 -13.191406 16.0625 -12.921875 16.0625 -12.609375 C 16.0625 -12.304688 16.164062 -12.039062 16.375 -11.8125 C 16.59375 -11.582031 16.867188 -11.46875 17.203125 -11.46875 C 18.148438 -11.46875 18.957031 -11.128906 19.625 -10.453125 C 20.300781 -9.785156 20.640625 -8.976562 20.640625 -8.03125 L 20.640625 -3.4375 C 20.640625 -2.488281 20.300781 -1.675781 19.625 -1 C 18.957031 -0.332031 18.148438 0 17.203125 0 C 16.253906 0 15.441406 -0.332031 14.765625 -1 C 14.097656 -1.675781 13.765625 -2.488281 13.765625 -3.4375 L 13.765625 -8.03125 C 13.765625 -8.363281 13.65625 -8.632812 13.4375 -8.84375 C 13.226562 -9.0625 12.953125 -9.171875 12.609375 -9.171875 L 8.03125 -9.171875 C 7.695312 -9.171875 7.421875 -9.0625 7.203125 -8.84375 C 6.984375 -8.632812 6.875 -8.363281 6.875 -8.03125 L 6.875 -3.4375 C 6.875 -2.488281 6.535156 -1.675781 5.859375 -1 C 5.191406 -0.332031 4.382812 0 3.4375 0 C 2.488281 0 1.675781 -0.332031 1 -1 C 0.332031 -1.675781 0 -2.488281 0 -3.4375 Z M 0 -8.03125 "/></g></g></g><g fill="#000000" fill-opacity="1"><g transform="translate(228.723512, 201.697951)"><g/></g></g><g fill="#000000" fill-opacity="1"><g transform="translate(240.374592, 201.697951)"><g><path d="M 0 -35.546875 C 0 -36.492188 0.332031 -37.304688 1 -37.984375 C 1.675781 -38.660156 2.488281 -39 3.4375 -39 C 4.382812 -39 5.191406 -38.660156 5.859375 -37.984375 C 6.535156 -37.304688 6.875 -36.492188 6.875 -35.546875 L 6.875 3.484375 C 6.875 4.429688 6.53125 5.234375 5.84375 5.890625 C 5.15625 6.546875 4.351562 6.875 3.4375 6.875 C 2.488281 6.875 1.675781 6.535156 1 5.859375 C 0.332031 5.191406 0 4.382812 0 3.4375 Z M 0 -35.546875 "/></g></g></g><g fill="#000000" fill-opacity="1"><g transform="translate(251.291733, 201.697951)"><g/></g></g><g fill="#000000" fill-opacity="1"><g transform="translate(262.942812, 201.697951)"><g><path d="M 0 -30.96875 C 0 -31.914062 0.332031 -32.722656 1 -33.390625 C 1.675781 -34.066406 2.488281 -34.40625 3.4375 -34.40625 L 17.203125 -34.40625 C 18.148438 -34.40625 18.957031 -34.066406 19.625 -33.390625 C 20.300781 -32.722656 20.640625 -31.914062 20.640625 -30.96875 C 20.640625 -30.632812 20.742188 -30.359375 20.953125 -30.140625 C 21.171875 -29.921875 21.453125 -29.8125 21.796875 -29.8125 C 22.742188 -29.8125 23.550781 -29.472656 24.21875 -28.796875 C 24.894531 -28.128906 25.234375 -27.320312 25.234375 -26.375 L 25.234375 -8.03125 C 25.234375 -7.082031 24.894531 -6.269531 24.21875 -5.59375 C 23.550781 -4.925781 22.742188 -4.59375 21.796875 -4.59375 C 21.515625 -4.59375 21.25 -4.488281 21 -4.28125 C 20.757812 -4.082031 20.640625 -3.800781 20.640625 -3.4375 C 20.640625 -2.488281 20.300781 -1.675781 19.625 -1 C 18.957031 -0.332031 18.148438 0 17.203125 0 L 3.4375 0 C 2.488281 0 1.675781 -0.34375 1 -1.03125 C 0.332031 -1.71875 0 -2.535156 0 -3.484375 Z M 17.203125 -6.875 C 17.441406 -6.875 17.691406 -6.972656 17.953125 -7.171875 C 18.210938 -7.378906 18.34375 -7.664062 18.34375 -8.03125 L 18.34375 -26.375 C 18.34375 -26.6875 18.234375 -26.957031 18.015625 -27.1875 C 17.804688 -27.414062 17.535156 -27.53125 17.203125 -27.53125 L 8.03125 -27.53125 C 7.695312 -27.53125 7.421875 -27.414062 7.203125 -27.1875 C 6.984375 -26.957031 6.875 -26.6875 6.875 -26.375 L 6.875 -8.03125 C 6.875 -7.71875 6.984375 -7.445312 7.203125 -7.21875 C 7.421875 -6.988281 7.695312 -6.875 8.03125 -6.875 Z M 17.203125 -6.875 "/></g></g></g><g fill="#000000" fill-opacity="1"><g transform="translate(292.208121, 201.697951)"><g><path d="M 0 -17.203125 C 0 -18.148438 0.332031 -18.957031 1 -19.625 C 1.675781 -20.300781 2.488281 -20.640625 3.4375 -20.640625 C 3.769531 -20.640625 4.046875 -20.757812 4.265625 -21 C 4.484375 -21.25 4.59375 -21.515625 4.59375 -21.796875 C 4.59375 -22.742188 4.925781 -23.550781 5.59375 -24.21875 C 6.269531 -24.894531 7.082031 -25.234375 8.03125 -25.234375 L 14.90625 -25.234375 C 15.851562 -25.234375 16.660156 -24.894531 17.328125 -24.21875 C 18.003906 -23.550781 18.34375 -22.742188 18.34375 -21.796875 C 18.34375 -21.453125 18.457031 -21.171875 18.6875 -20.953125 C 18.914062 -20.742188 19.1875 -20.640625 19.5 -20.640625 C 20.445312 -20.640625 21.253906 -20.300781 21.921875 -19.625 C 22.597656 -18.957031 22.9375 -18.148438 22.9375 -17.203125 L 22.9375 -8.03125 C 22.9375 -7.082031 22.597656 -6.269531 21.921875 -5.59375 C 21.253906 -4.925781 20.445312 -4.59375 19.5 -4.59375 C 19.132812 -4.59375 18.847656 -4.460938 18.640625 -4.203125 C 18.441406 -3.941406 18.34375 -3.6875 18.34375 -3.4375 C 18.34375 -2.488281 18.003906 -1.675781 17.328125 -1 C 16.660156 -0.332031 15.851562 0 14.90625 0 L 8.03125 0 C 7.082031 0 6.269531 -0.332031 5.59375 -1 C 4.925781 -1.675781 4.59375 -2.488281 4.59375 -3.4375 C 4.59375 -3.769531 4.484375 -4.046875 4.265625 -4.265625 C 4.046875 -4.484375 3.769531 -4.59375 3.4375 -4.59375 C 2.488281 -4.59375 1.675781 -4.925781 1 -5.59375 C 0.332031 -6.269531 0 -7.082031 0 -8.03125 Z M 14.90625 -6.875 C 15.1875 -6.875 15.445312 -6.96875 15.6875 -7.15625 C 15.9375 -7.34375 16.0625 -7.632812 16.0625 -8.03125 L 16.0625 -17.203125 C 16.0625 -17.503906 15.953125 -17.769531 15.734375 -18 C 15.515625 -18.226562 15.238281 -18.34375 14.90625 -18.34375 L 8.03125 -18.34375 C 7.695312 -18.34375 7.421875 -18.21875 7.203125 -17.96875 C 6.984375 -17.726562 6.875 -17.472656 6.875 -17.203125 L 6.875 -8.03125 C 6.875 -7.695312 6.988281 -7.421875 7.21875 -7.203125 C 7.445312 -6.984375 7.71875 -6.875 8.03125 -6.875 Z M 14.90625 -6.875 "/></g></g></g><g fill="#000000" fill-opacity="1"><g transform="translate(319.17989, 201.697951)"><g><path d="M 0 -17.203125 C 0 -18.148438 0.332031 -18.957031 1 -19.625 C 1.675781 -20.300781 2.488281 -20.640625 3.4375 -20.640625 C 3.769531 -20.640625 4.046875 -20.742188 4.265625 -20.953125 C 4.484375 -21.171875 4.59375 -21.453125 4.59375 -21.796875 C 4.59375 -22.742188 4.925781 -23.550781 5.59375 -24.21875 C 6.269531 -24.894531 7.082031 -25.234375 8.03125 -25.234375 L 17.203125 -25.234375 C 18.148438 -25.234375 18.957031 -24.894531 19.625 -24.21875 C 20.300781 -23.550781 20.640625 -22.742188 20.640625 -21.796875 C 20.640625 -20.847656 20.300781 -20.035156 19.625 -19.359375 C 18.957031 -18.679688 18.148438 -18.34375 17.203125 -18.34375 L 8.03125 -18.34375 C 7.695312 -18.34375 7.421875 -18.226562 7.203125 -18 C 6.984375 -17.769531 6.875 -17.503906 6.875 -17.203125 L 6.875 -8.03125 C 6.875 -7.664062 7.003906 -7.378906 7.265625 -7.171875 C 7.523438 -6.972656 7.78125 -6.875 8.03125 -6.875 L 17.203125 -6.875 C 18.148438 -6.875 18.957031 -6.535156 19.625 -5.859375 C 20.300781 -5.191406 20.640625 -4.382812 20.640625 -3.4375 C 20.640625 -2.488281 20.300781 -1.675781 19.625 -1 C 18.957031 -0.332031 18.148438 0 17.203125 0 L 8.03125 0 C 7.082031 0 6.269531 -0.332031 5.59375 -1 C 4.925781 -1.675781 4.59375 -2.488281 4.59375 -3.4375 C 4.59375 -3.800781 4.46875 -4.082031 4.21875 -4.28125 C 3.976562 -4.488281 3.71875 -4.59375 3.4375 -4.59375 C 2.488281 -4.59375 1.675781 -4.925781 1 -5.59375 C 0.332031 -6.269531 0 -7.082031 0 -8.03125 Z M 0 -17.203125 "/></g></g></g><g fill="#000000" fill-opacity="1"><g transform="translate(343.858136, 201.697951)"><g><path d="M 14.90625 -6.875 C 15.238281 -6.875 15.515625 -6.984375 15.734375 -7.203125 C 15.953125 -7.421875 16.0625 -7.695312 16.0625 -8.03125 C 16.0625 -8.332031 15.953125 -8.597656 15.734375 -8.828125 C 15.515625 -9.054688 15.238281 -9.171875 14.90625 -9.171875 L 3.4375 -9.171875 C 2.488281 -9.171875 1.675781 -9.503906 1 -10.171875 C 0.332031 -10.847656 0 -11.660156 0 -12.609375 L 0 -17.203125 C 0 -18.148438 0.332031 -18.957031 1 -19.625 C 1.675781 -20.300781 2.488281 -20.640625 3.4375 -20.640625 C 3.769531 -20.640625 4.046875 -20.753906 4.265625 -20.984375 C 4.484375 -21.210938 4.59375 -21.484375 4.59375 -21.796875 C 4.59375 -22.742188 4.925781 -23.550781 5.59375 -24.21875 C 6.269531 -24.894531 7.082031 -25.234375 8.03125 -25.234375 L 19.5 -25.234375 C 20.445312 -25.234375 21.253906 -24.894531 21.921875 -24.21875 C 22.597656 -23.550781 22.9375 -22.742188 22.9375 -21.796875 C 22.9375 -20.847656 22.597656 -20.035156 21.921875 -19.359375 C 21.253906 -18.679688 20.445312 -18.34375 19.5 -18.34375 L 8.03125 -18.34375 C 7.695312 -18.34375 7.421875 -18.234375 7.203125 -18.015625 C 6.984375 -17.804688 6.875 -17.535156 6.875 -17.203125 C 6.875 -16.867188 6.984375 -16.59375 7.203125 -16.375 C 7.421875 -16.164062 7.695312 -16.0625 8.03125 -16.0625 L 19.5 -16.0625 C 20.445312 -16.0625 21.253906 -15.722656 21.921875 -15.046875 C 22.597656 -14.367188 22.9375 -13.554688 22.9375 -12.609375 L 22.9375 -8.03125 C 22.9375 -7.082031 22.597656 -6.269531 21.921875 -5.59375 C 21.253906 -4.925781 20.445312 -4.59375 19.5 -4.59375 C 19.164062 -4.59375 18.890625 -4.476562 18.671875 -4.25 C 18.453125 -4.019531 18.34375 -3.75 18.34375 -3.4375 C 18.34375 -2.488281 18.003906 -1.675781 17.328125 -1 C 16.660156 -0.332031 15.851562 0 14.90625 0 L 3.4375 0 C 2.488281 0 1.675781 -0.332031 1 -1 C 0.332031 -1.675781 0 -2.488281 0 -3.4375 C 0 -4.382812 0.332031 -5.191406 1 -5.859375 C 1.675781 -6.535156 2.488281 -6.875 3.4375 -6.875 Z M 14.90625 -6.875 "/></g></g></g></svg>